<svg xmlns="http://www.w3.org/2000/svg" viewBox="0 0 730 172">
  <defs>
    <linearGradient id="bg" x1="0" x2="1" y1="0" y2="1">
      <stop offset="0" stop-color="#ff523b"/>
      <stop offset="0.55" stop-color="#ef352d"/>
      <stop offset="1" stop-color="#e72b25"/>
    </linearGradient>
    <filter id="shadow" x="-20%" y="-20%" width="140%" height="140%">
      <feDropShadow dx="0" dy="3" stdDeviation="2.5" flood-color="#ba261e" flood-opacity=".25"/>
    </filter>
  </defs>
  <rect width="730" height="172" fill="url(#bg)"/>
  <path d="M0 0h52L0 35z" fill="#34b6a6"/>
  <path d="M730 172h-42l42-37z" fill="#ffc62a"/>
  <path d="M334 39V30C334 12 348 3 365 3s31 9 31 27v9" fill="none" stroke="#fff" stroke-width="4.5" stroke-linecap="round"/>
  <path d="M270 76 268 39H462L460 76" fill="none" stroke="#fff" stroke-width="4.5" stroke-linecap="round" stroke-linejoin="round"/>
  <text x="365" y="72" fill="#fff" filter="url(#shadow)" text-anchor="middle" font-family="Arial, Helvetica, sans-serif" font-size="33" font-weight="900">Xhopii</text>
  <text x="365" y="122" fill="#fff" filter="url(#shadow)" text-anchor="middle" font-family="Arial, Helvetica, sans-serif" font-size="43" font-weight="900">mês do</text>
  <rect x="188" y="132" width="354" height="36" rx="18" fill="#fff"/>
  <text x="365" y="160" fill="#ee332b" text-anchor="middle" font-family="Arial, Helvetica, sans-serif" font-size="39" font-weight="900">CONSUMIDOR</text>
  <path d="m22 83-10 10 10 10" fill="none" stroke="#fff" stroke-width="2.2" stroke-linecap="round" stroke-linejoin="round"/>
  <path d="m708 83 10 10-10 10" fill="none" stroke="#fff" stroke-width="2.2" stroke-linecap="round" stroke-linejoin="round"/>
  <rect x="343" y="162" width="22" height="3" rx="1.5" fill="#fff"/>
  <rect x="369" y="162" width="22" height="3" rx="1.5" fill="#fff" opacity=".72"/>
  <rect x="395" y="162" width="22" height="3" rx="1.5" fill="#fff" opacity=".72"/>
</svg>
