<svg xmlns="http://www.w3.org/2000/svg" viewBox="0 0 150 54">
  <rect width="150" height="54" fill="#fff"/>
  <path fill="#00a4df" d="M9.8 41.9A25.1 25.1 0 0 1 9.8 12l10.3 10.3a10.5 10.5 0 0 0 0 9.4L9.8 41.9z"/>
  <path fill="#ffc400" d="M26.9 7.6a25.1 25.1 0 0 1 24.7 18.5l-14.1 3.7a10.6 10.6 0 0 0-10.6-7.6z"/>
  <path fill="#ef3b24" d="M27 46.4a25.1 25.1 0 0 0 24.6-18.2l-14.1-3.8A10.7 10.7 0 0 1 27 31.8z"/>
  <path fill="#000" d="M70.4 16.8c8.7 0 15 6.1 15 14.1 0 1.3-.2 2.6-.5 3.7H63.4c1.2 3.8 4.7 6 9.3 6 3.1 0 5.8-1 8.1-2.9l4.2 5.5c-3.4 3-7.6 4.5-12.8 4.5-10 0-16.9-6.4-16.9-15.5 0-8.7 6.6-15.4 15.1-15.4zm-.2 6.9c-3.6 0-6.2 2.1-7 5.8h14.3c-.7-3.5-3.4-5.8-7.3-5.8z"/>
  <path fill="#000" d="M94.2 6.5h8.2v40.4h-8.2z"/>
  <path fill="#000" d="M127.1 16.8c9 0 15.8 6.6 15.8 15.4s-6.8 15.5-15.8 15.5c-9.1 0-15.9-6.7-15.9-15.5s6.8-15.4 15.9-15.4zm0 7.4c-4.6 0-7.8 3.3-7.8 8s3.2 8.1 7.8 8.1 7.8-3.4 7.8-8.1-3.2-8-7.8-8z"/>
  <path fill="#000" d="M143.8 19.6l-5.9 4.7a13.4 13.4 0 0 0-5.9-5.2l2.8-6.9a21.8 21.8 0 0 1 9 7.4z"/>
  <path fill="#000" d="M134.8 52.1l-2.8-6.9a13.6 13.6 0 0 0 5.9-5.1l5.9 4.6a21.5 21.5 0 0 1-9 7.4z"/>
</svg>
